HIERARCHY
ROOT root
{
	OFFSET 0.000000 0.000000 0.000000
	CHANNELS 6 Xposition Yposition Zposition Zrotation Yrotation Xrotation
	JOINT lhip
	{
		OFFSET 0.058581 -0.082280 -0.017664
		CHANNELS 3 Zrotation Yrotation Xrotation
		JOINT lknee
		{
			OFFSET 0.043451 -0.386469 0.008037
			CHANNELS 3 Zrotation Yrotation Xrotation
			JOINT lankle
			{
				OFFSET -0.014790 -0.426874 -0.037428
				CHANNELS 3 Zrotation Yrotation Xrotation
				JOINT ltoe
				{
					OFFSET 0.041054 -0.060286 0.122042
					CHANNELS 3 Zrotation Yrotation Xrotation
					End Site
					{
						OFFSET 0.000000 0.000000 0.000000
					}
				}
			}
		}
	}
	JOINT rhip
	{
		OFFSET -0.060310 -0.090513 -0.013543
		CHANNELS 3 Zrotation Yrotation Xrotation
		JOINT rknee
		{
			OFFSET -0.043257 -0.383688 -0.004843
			CHANNELS 3 Zrotation Yrotation Xrotation
			JOINT rankle
			{
				OFFSET 0.019056 -0.420046 -0.034562
				CHANNELS 3 Zrotation Yrotation Xrotation
				JOINT rtoe
				{
					OFFSET -0.034840 -0.062106 0.130323
					CHANNELS 3 Zrotation Yrotation Xrotation
					End Site
					{
						OFFSET 0.000000 0.000000 0.000000
					}
				}
			}
		}
	}
	JOINT lowerback
	{
		OFFSET 0.004439 0.124404 -0.038385
		CHANNELS 3 Zrotation Yrotation Xrotation
		JOINT upperback
		{
			OFFSET 0.004488 0.137956 0.026820
			CHANNELS 3 Zrotation Yrotation Xrotation
			JOINT chest
			{
				OFFSET -0.002265 0.056032 0.002855
				CHANNELS 3 Zrotation Yrotation Xrotation
				JOINT lowerneck
				{
					OFFSET -0.013390 0.211636 -0.033468
					CHANNELS 3 Zrotation Yrotation Xrotation
					JOINT upperneck
					{
						OFFSET 0.010113 0.088937 0.050410
						CHANNELS 3 Zrotation Yrotation Xrotation
						End Site
						{
							OFFSET 0.000000 0.000000 0.000000
						}
					}
				}
				JOINT lclavicle
				{
					OFFSET 0.071702 0.114000 -0.018898
					CHANNELS 3 Zrotation Yrotation Xrotation
					JOINT lshoulder
					{
						OFFSET 0.122921 0.045205 -0.019046
						CHANNELS 3 Zrotation Yrotation Xrotation
						JOINT lelbow
						{
							OFFSET 0.255332 -0.015649 -0.022946
							CHANNELS 3 Zrotation Yrotation Xrotation
							JOINT lwrist
							{
								OFFSET 0.265709 0.012698 -0.007375
								CHANNELS 3 Zrotation Yrotation Xrotation
								End Site
								{
									OFFSET 0.000000 0.000000 0.000000
								}
							}
						}
					}
				}
				JOINT rclavicle
				{
					OFFSET -0.082954 0.112472 -0.023707
					CHANNELS 3 Zrotation Yrotation Xrotation
					JOINT rshoulder
					{
						OFFSET -0.113228 0.046853 -0.008472
						CHANNELS 3 Zrotation Yrotation Xrotation
						JOINT relbow
						{
							OFFSET -0.260127 -0.014369 -0.031269
							CHANNELS 3 Zrotation Yrotation Xrotation
							JOINT rwrist
							{
								OFFSET -0.269108 0.006794 -0.006027
								CHANNELS 3 Zrotation Yrotation Xrotation
								End Site
								{
									OFFSET 0.000000 0.000000 0.000000
								}
							}
						}
					}
				}
			}
		}
	}
}
MOTION
Frames: 7
Frame Time: 0.033333
-0.014599 0.278686 0.976166 80.515836 -4.060171 78.451241 -0.018383 5.871774 2.489350 -5.775362 1.974641 22.537415 2.334268 13.344846 -14.260048 0.000000 -0.000000 0.000000 -6.582142 -0.544830 -6.144269 -0.342512 5.352558 33.497745 4.068738 -8.788622 -15.757843 0.000000 -0.000000 0.000000 -0.158640 1.290492 13.692201 -6.070383 2.895943 3.387751 -4.473547 1.897681 3.106509 4.236024 -4.036113 6.229646 1.178535 9.346714 6.801182 -20.977670 -9.216672 6.594053 -47.714515 2.086085 19.831943 -1.407506 -82.941307 11.651637 19.441679 -6.539396 -49.314500 -0.959639 25.284408 -9.352427 3.540459 44.299438 -18.246709 -49.565982 48.752186 -57.854778 -6.238531 0.821465 -25.895546 
-0.013252 0.278072 0.979105 81.485105 -3.570855 79.145739 0.225385 5.096608 2.179492 -5.579331 1.902001 21.613782 2.306177 12.903523 -13.714936 0.000000 -0.000000 0.000000 -6.326293 -0.693519 -5.879036 -0.400826 4.406624 32.076687 4.159676 -8.798401 -15.316973 0.000000 -0.000000 0.000000 -0.184483 1.324293 12.700217 -5.183682 2.181724 3.065098 -4.220863 1.706259 3.103235 4.113061 -3.522500 5.268645 1.058085 8.072417 7.583111 -20.496099 -8.884384 6.717161 -47.755400 1.732733 20.124243 -13.657101 -85.024377 24.194903 18.055205 -7.218794 -49.965589 0.494249 24.173152 -8.533321 10.336384 43.756574 -11.911789 -57.446790 53.556650 -62.105897 -4.049603 1.555304 -26.457155 
-0.011930 0.278692 0.982109 83.211860 -2.623421 79.973347 0.689981 3.524693 1.531920 -5.086539 1.925877 20.646391 2.061710 12.335414 -12.886159 0.000000 -0.000000 0.000000 -5.858807 -1.328618 -5.451716 -0.399767 2.932262 30.179833 4.098725 -8.769193 -14.782359 0.000000 -0.000000 0.000000 0.531032 1.231976 11.854107 -4.231306 1.018102 2.407549 -4.044306 1.633727 3.171003 3.750624 -2.952615 4.016578 0.849495 6.645543 8.570344 -19.863066 -8.652595 6.559944 -47.804175 0.837907 20.520248 -50.275310 -87.504278 61.398799 15.910148 -8.492599 -50.579921 1.896269 22.746688 -7.808153 17.095775 41.663834 -5.438042 -67.774324 58.293695 -68.728580 -1.115894 2.792446 -27.091676 
-0.007698 0.277771 0.987051 83.673550 -2.606851 80.222133 0.522591 3.345170 2.740152 -4.867638 1.489851 18.216376 1.869285 12.132792 -11.805359 0.000000 -0.000000 0.000000 -6.036440 -1.565832 -4.231950 -0.625142 2.186918 28.056087 4.422070 -8.246791 -14.060400 0.000000 -0.000000 0.000000 0.003464 1.548783 11.011504 -3.471217 0.805669 2.511354 -3.448633 1.855363 2.669414 2.956727 -2.538635 3.072947 0.918384 5.355513 9.638091 -19.074713 -8.602092 6.072707 -47.702327 0.106219 21.020342 -143.135967 -86.741343 154.537076 15.198742 -8.474969 -52.096511 3.659984 21.580383 -6.908973 23.703539 38.414415 0.790189 -81.003615 61.951446 -78.963273 2.010921 3.832262 -28.980126 
-0.004453 0.276758 0.991761 84.499316 -2.461698 80.701446 0.490695 2.704044 3.523782 -4.709874 1.179393 15.949585 1.622173 11.913328 -10.769653 0.000000 -0.000000 0.000000 -6.082094 -1.914875 -3.130603 -0.732764 1.314635 25.689909 4.635787 -7.888825 -13.282312 0.000000 -0.000000 0.000000 -0.487980 1.913633 10.040683 -2.557036 0.545511 2.362029 -2.764144 1.966663 2.386205 2.092931 -2.034476 1.928297 0.766410 3.986995 11.016474 -18.042845 -8.200215 5.163634 -47.866566 -1.623333 21.496574 -168.548454 -83.124945 179.100689 14.987455 -7.849073 -55.296019 5.530407 19.932162 -5.937142 28.606201 35.319659 5.634320 -93.880634 63.850553 -89.627523 5.149919 4.475811 -30.788809 
-0.001048 0.275890 0.996102 85.376602 -2.247385 81.165276 0.554697 2.129200 4.331212 -4.502711 0.920472 13.687099 1.393795 11.527881 -9.706915 0.000000 -0.000000 0.000000 -6.047233 -2.175574 -1.953630 -0.865602 0.216364 23.282552 4.917914 -7.502707 -12.440976 0.000000 -0.000000 0.000000 -0.735333 2.062005 9.206321 -1.827105 0.290275 2.065193 -2.130744 2.153234 2.087537 1.038992 -1.695371 1.082413 0.599576 2.898265 12.149079 -16.749325 -7.903787 4.235297 -48.472105 -3.502263 21.466446 176.902200 -78.969066 -166.651285 14.133567 -7.932144 -58.114015 6.532199 18.454615 -5.302854 33.297672 31.706509 9.663519 -106.028629 63.478417 -100.082755 7.435103 5.866287 -32.876620 
0.002576 0.275293 0.999906 86.165544 -2.114416 81.649054 0.584917 1.577924 5.132432 -4.316952 0.763885 11.461310 1.088573 11.147574 -8.678102 0.000000 -0.000000 0.000000 -6.064025 -2.605504 -0.881400 -0.984457 -0.677410 21.000494 5.211586 -7.053697 -11.631320 0.000000 -0.000000 0.000000 -0.883695 2.206791 8.403986 -1.248863 0.138745 1.555411 -1.636445 2.457463 1.922825 0.045769 -1.583964 0.399013 0.639571 1.781876 13.383261 -15.158213 -7.113767 2.870623 -49.584024 -5.799679 21.276582 168.610486 -75.108185 -159.085800 14.899743 -6.742359 -60.796723 7.239580 16.584243 -5.018388 37.746462 28.251827 12.682169 -114.646518 61.592037 -107.540195 8.383508 6.818651 -35.027452 
